<svg xmlns="http://www.w3.org/2000/svg" viewBox="0 0 1412.11 67.3"><defs><style>.cls-1{fill:#4d4d4d;}.cls-2{fill:#ee8e35;}.cls-3{fill:#82a84d;}</style></defs><g id="Laag_2" data-name="Laag 2"><g id="Laag_1-2" data-name="Laag 1"><polygon class="cls-1" points="1278.68 63.99 1232.15 19.99 1188.42 63.99 4.11 63.99 4.11 67.3 1412.11 67.3 1412.11 63.99 1278.68 63.99"/><path class="cls-2" d="M1283.92,48,1233.84.86h0a.27.27,0,0,0-.08-.07l-.16-.14-.07-.05-.19-.13-.08,0-.2-.11-.09,0-.19-.08-.11,0-.18-.06-.14,0-.16,0L1232,0h-.76l-.16,0-.13,0-.17,0-.13,0-.17.06-.11.05-.17.08-.11.06-.18.11-.08,0-.21.16s0,0,0,0l-.24.22h0l-45.14,47.86L.09,50.87H0v6.29H.14l1185.48-2a3.17,3.17,0,0,0,2.29-1L1188,54,1231.8,7.61l48.7,45.81a.27.27,0,0,1,.08.07l.12.1.12.09.12.08.14.09.12.07.15.07.13,0,.15.06.14,0,.16,0,.13,0,.18,0h.12l.31,0H1412V48Z"/><path class="cls-3" d="M1278.36,58.82l-44.49-41.91-.11-.1-.13-.11-.12-.08-.14-.1-.13-.07-.14-.08-.14-.06-.14-.06-.15-.05-.14,0-.15,0-.15,0-.15,0h-.76l-.14,0a.76.76,0,0,0-.16,0l-.14,0-.15.05-.14.05-.15,0a.61.61,0,0,1-.14.07l-.13.07-.14.09-.13.08-.13.1-.12.09-.12.12-.11.1-41,43.06L.24,60.56l-.24,0v6.26a2,2,0,0,0,.24,0h0l1189.51-.48h.32l.17,0,.14,0,.2,0,.1,0,.2-.07.1,0,.21-.1.14-.08.2-.12.09-.07.16-.12.09-.08.14-.14,0,0,39.78-41.77L1275,64.27a.27.27,0,0,0,.08.07,1.27,1.27,0,0,0,.12.1l.12.1.12.08.14.08.12.07.15.07.12.06.16.06.13,0,.16,0,.14,0,.18,0,.12,0H1412V58.82Z"/></g></g></svg>