<svg xmlns="http://www.w3.org/2000/svg" viewBox="0 0 1412.11 67.3"><defs><style>.cls-1{fill:#fff;}.cls-2{fill:#ee8e35;}.cls-3{fill:#82a84d;}</style></defs><g id="Laag_2" data-name="Laag 2"><g id="Laag_1-2" data-name="Laag 1"><g id="Laag_2-2" data-name="Laag 2"><g id="Laag_1-2-2" data-name="Laag 1-2"><polygon class="cls-1" points="1278.68 63.99 1232.15 19.99 1188.42 63.99 4.11 63.99 4.11 67.3 1412.11 67.3 1412.11 63.99 1278.68 63.99"/><path class="cls-2" d="M1283.92,48,1233.84.86h0a.27.27,0,0,0-.08-.07l-.16-.14-.07-.05-.19-.13h-.08l-.2-.11H1233l-.19-.08h-.11l-.18-.06h-.3L1232,0h-1.35l-.17.06-.11.05-.17.08-.11.06-.18.11h-.08l-.21.16h0l-.24.22h0L1184.24,48.6.09,50.87H0v6.29H.14l1185.48-2a3.19,3.19,0,0,0,2.29-1L1188,54l43.8-46.39,48.7,45.81a.27.27,0,0,1,.08.07l.12.1.12.09.12.08.14.09.12.07.15.07h.13l.15.06H1412V48Z"/><path class="cls-3" d="M1278.36,58.82l-44.49-41.91-.11-.1-.13-.11-.12-.08-.14-.1-.13-.07-.14-.08-.14-.06-.14-.06-.15-.05h-1.79l-.15.05-.14.05h-.15a.61.61,0,0,1-.14.07l-.13.07-.14.09-.13.08-.13.1-.12.09-.12.12-.11.1-41,43.06L.24,60.56H0v6.26H.24l1189.51-.48h.93l.2-.07h.1l.21-.1.14-.08.2-.12.09-.07.16-.12.09-.08.14-.14h0l39.78-41.77L1275,64.27a.27.27,0,0,0,.08.07l.12.1.12.1.12.08.14.08.12.07.15.07.12.06.16.06H1412V58.82Z"/></g></g></g></g></svg>